# xmcd CD database file
#
# Track frame offsets:
#	150
#	34352
#	67578
#	99970
#	132575
#	161673
#	194924
#	229308
#	268656
#
# Disc length: 4091 seconds
#
# Revision: 0
# Processed by: cddbd v1.5.2PL0 Copyright (c) Steve Scherf et al.
# Submitted via: CDex 1.70beta2
#
DISCID=810ff909
DTITLE=Yves Léveillé - Soho
DYEAR=2006
DGENRE=Jazz
TTITLE0=Erosion
TTITLE1=Manifeste
TTITLE2=Une nuit sur Soho
TTITLE3=New York 10012
TTITLE4=Sous le charme
TTITLE5=Le ventriloque
TTITLE6=Parade
TTITLE7=Forage
TTITLE8=Gravitation lunaire
EXTD=YEAR: 2006
EXTT0=
EXTT1=
EXTT2=
EXTT3=
EXTT4=
EXTT5=
EXTT6=
EXTT7=
EXTT8=
PLAYORDER=
